<svg id="visual" viewBox="0 0 540 960" width="540" height="960" xmlns="http://www.w3.org/2000/svg" xmlns:xlink="http://www.w3.org/1999/xlink" version="1.1"><rect x="0" y="0" width="540" height="960" fill="#171923"></rect><defs><linearGradient id="grad1_0" x1="0%" y1="100%" x2="100%" y2="0%"><stop offset="30%" stop-color="#8000ff" stop-opacity="1"></stop><stop offset="70%" stop-color="#8000ff" stop-opacity="1"></stop></linearGradient></defs><defs><linearGradient id="grad1_1" x1="0%" y1="100%" x2="100%" y2="0%"><stop offset="30%" stop-color="#8000ff" stop-opacity="1"></stop><stop offset="70%" stop-color="#5628de" stop-opacity="1"></stop></linearGradient></defs><defs><linearGradient id="grad1_2" x1="0%" y1="100%" x2="100%" y2="0%"><stop offset="30%" stop-color="#332fbb" stop-opacity="1"></stop><stop offset="70%" stop-color="#5628de" stop-opacity="1"></stop></linearGradient></defs><defs><linearGradient id="grad1_3" x1="0%" y1="100%" x2="100%" y2="0%"><stop offset="30%" stop-color="#332fbb" stop-opacity="1"></stop><stop offset="70%" stop-color="#1b2f95" stop-opacity="1"></stop></linearGradient></defs><defs><linearGradient id="grad1_4" x1="0%" y1="100%" x2="100%" y2="0%"><stop offset="30%" stop-color="#13296f" stop-opacity="1"></stop><stop offset="70%" stop-color="#1b2f95" stop-opacity="1"></stop></linearGradient></defs><defs><linearGradient id="grad1_5" x1="0%" y1="100%" x2="100%" y2="0%"><stop offset="30%" stop-color="#13296f" stop-opacity="1"></stop><stop offset="70%" stop-color="#172248" stop-opacity="1"></stop></linearGradient></defs><defs><linearGradient id="grad1_6" x1="0%" y1="100%" x2="100%" y2="0%"><stop offset="30%" stop-color="#171923" stop-opacity="1"></stop><stop offset="70%" stop-color="#172248" stop-opacity="1"></stop></linearGradient></defs><defs><linearGradient id="grad2_0" x1="0%" y1="100%" x2="100%" y2="0%"><stop offset="30%" stop-color="#8000ff" stop-opacity="1"></stop><stop offset="70%" stop-color="#8000ff" stop-opacity="1"></stop></linearGradient></defs><defs><linearGradient id="grad2_1" x1="0%" y1="100%" x2="100%" y2="0%"><stop offset="30%" stop-color="#5628de" stop-opacity="1"></stop><stop offset="70%" stop-color="#8000ff" stop-opacity="1"></stop></linearGradient></defs><defs><linearGradient id="grad2_2" x1="0%" y1="100%" x2="100%" y2="0%"><stop offset="30%" stop-color="#5628de" stop-opacity="1"></stop><stop offset="70%" stop-color="#332fbb" stop-opacity="1"></stop></linearGradient></defs><defs><linearGradient id="grad2_3" x1="0%" y1="100%" x2="100%" y2="0%"><stop offset="30%" stop-color="#1b2f95" stop-opacity="1"></stop><stop offset="70%" stop-color="#332fbb" stop-opacity="1"></stop></linearGradient></defs><defs><linearGradient id="grad2_4" x1="0%" y1="100%" x2="100%" y2="0%"><stop offset="30%" stop-color="#1b2f95" stop-opacity="1"></stop><stop offset="70%" stop-color="#13296f" stop-opacity="1"></stop></linearGradient></defs><defs><linearGradient id="grad2_5" x1="0%" y1="100%" x2="100%" y2="0%"><stop offset="30%" stop-color="#172248" stop-opacity="1"></stop><stop offset="70%" stop-color="#13296f" stop-opacity="1"></stop></linearGradient></defs><defs><linearGradient id="grad2_6" x1="0%" y1="100%" x2="100%" y2="0%"><stop offset="30%" stop-color="#172248" stop-opacity="1"></stop><stop offset="70%" stop-color="#171923" stop-opacity="1"></stop></linearGradient></defs><g transform="translate(540, 960)"><path d="M-459 0C-438.3 -74.8 -417.6 -149.6 -381.9 -220.5C-346.3 -291.4 -295.6 -358.4 -229.5 -397.5C-163.4 -436.6 -81.7 -447.8 0 -459L0 0Z" fill="#181e35"></path><path d="M-393.4 0C-375.7 -64.1 -357.9 -128.2 -327.4 -189C-296.8 -249.8 -253.4 -307.2 -196.7 -340.7C-140 -374.2 -70 -383.8 0 -393.4L0 0Z" fill="#15265b"></path><path d="M-327.9 0C-313.1 -53.4 -298.3 -106.9 -272.8 -157.5C-247.3 -208.1 -211.2 -256 -163.9 -283.9C-116.7 -311.9 -58.3 -319.9 0 -327.9L0 0Z" fill="#152c82"></path><path d="M-262.3 0C-250.5 -42.7 -238.6 -85.5 -218.2 -126C-197.9 -166.5 -168.9 -204.8 -131.1 -227.1C-93.3 -249.5 -46.7 -255.9 0 -262.3L0 0Z" fill="#2530a8"></path><path d="M-196.7 0C-187.8 -32.1 -179 -64.1 -163.7 -94.5C-148.4 -124.9 -126.7 -153.6 -98.4 -170.4C-70 -187.1 -35 -191.9 0 -196.7L0 0Z" fill="#442dcd"></path><path d="M-131.1 0C-125.2 -21.4 -119.3 -42.7 -109.1 -63C-98.9 -83.3 -84.5 -102.4 -65.6 -113.6C-46.7 -124.7 -23.3 -127.9 0 -131.1L0 0Z" fill="#6b1def"></path><path d="M-65.6 0C-62.6 -10.7 -59.7 -21.4 -54.6 -31.5C-49.5 -41.6 -42.2 -51.2 -32.8 -56.8C-23.3 -62.4 -11.7 -64 0 -65.6L0 0Z" fill="#8000ff"></path></g><g transform="translate(0, 0)"><path d="M459 0C442.4 77.2 425.9 154.4 389.7 225C353.5 295.6 297.7 359.6 229.5 397.5C161.3 435.4 80.6 447.2 0 459L0 0Z" fill="#181e35"></path><path d="M393.4 0C379.2 66.2 365.1 132.3 334 192.9C303 253.4 255.2 308.2 196.7 340.7C138.2 373.2 69.1 383.3 0 393.4L0 0Z" fill="#15265b"></path><path d="M327.9 0C316 55.1 304.2 110.3 278.4 160.7C252.5 211.1 212.7 256.9 163.9 283.9C115.2 311 57.6 319.4 0 327.9L0 0Z" fill="#152c82"></path><path d="M262.3 0C252.8 44.1 243.4 88.2 222.7 128.6C202 168.9 170.1 205.5 131.1 227.1C92.2 248.8 46.1 255.5 0 262.3L0 0Z" fill="#2530a8"></path><path d="M196.7 0C189.6 33.1 182.5 66.2 167 96.4C151.5 126.7 127.6 154.1 98.4 170.4C69.1 186.6 34.6 191.7 0 196.7L0 0Z" fill="#442dcd"></path><path d="M131.1 0C126.4 22.1 121.7 44.1 111.3 64.3C101 84.5 85.1 102.7 65.6 113.6C46.1 124.4 23 127.8 0 131.1L0 0Z" fill="#6b1def"></path><path d="M65.6 0C63.2 11 60.8 22.1 55.7 32.1C50.5 42.2 42.5 51.4 32.8 56.8C23 62.2 11.5 63.9 0 65.6L0 0Z" fill="#8000ff"></path></g></svg>