<svg xmlns="http://www.w3.org/2000/svg" xmlns:xlink="http://www.w3.org/1999/xlink" width="500" zoomAndPan="magnify" viewBox="0 0 375 374.999991" height="500" preserveAspectRatio="xMidYMid meet" version="1.0"><defs><g/><clipPath id="5930f0ff25"><path d="M 1.660156 0 L 375 0 L 375 373.5 L 1.660156 373.5 Z M 1.660156 0 " clip-rule="nonzero"/></clipPath><clipPath id="79c94368f4"><path d="M 12.359375 51.367188 L 103.109375 51.367188 L 103.109375 323.617188 L 12.359375 323.617188 Z M 12.359375 51.367188 " clip-rule="nonzero"/></clipPath><clipPath id="ea12d5024a"><path d="M 273.066406 53.433594 L 361.566406 53.433594 L 361.566406 321.933594 L 273.066406 321.933594 Z M 273.066406 53.433594 " clip-rule="nonzero"/></clipPath><clipPath id="a82e82360e"><path d="M 75.363281 55.5 L 167.613281 55.5 L 167.613281 324 L 75.363281 324 Z M 75.363281 55.5 " clip-rule="nonzero"/></clipPath></defs><g clip-path="url(#5930f0ff25)"><path fill="#000a17" d="M 188.410156 0 C 85.273438 0 1.660156 83.609375 1.660156 186.75 C 1.660156 289.890625 85.273438 373.5 188.410156 373.5 C 291.550781 373.5 375.160156 289.890625 375.160156 186.75 C 375.160156 83.609375 291.550781 0 188.410156 0 " fill-opacity="1" fill-rule="nonzero"/></g><g clip-path="url(#79c94368f4)"><path fill="#e8e8e8" d="M 26.9375 187.507812 L 97.441406 257.949219 L 90.136719 265.25 L 12.359375 187.507812 L 90.171875 109.765625 L 97.476562 117.0625 Z M 192.3125 51.441406 L 202.03125 53.886719 L 143.65625 323.539062 L 133.9375 321.097656 Z M 245.796875 109.765625 L 323.609375 187.507812 L 245.796875 265.25 L 238.492188 257.949219 L 308.996094 187.507812 L 238.492188 117.0625 Z M 245.796875 109.765625 " fill-opacity="1" fill-rule="nonzero"/></g><g clip-path="url(#ea12d5024a)"><path fill="#e8e8e8" d="M 69.90625 187.699219 L 139.226562 257.171875 L 132.042969 264.371094 L 55.574219 187.699219 L 132.074219 111.027344 L 139.257812 118.226562 Z M 232.492188 53.507812 L 242.046875 55.917969 L 184.65625 321.859375 L 175.101562 319.449219 Z M 285.074219 111.027344 L 361.574219 187.699219 L 285.074219 264.371094 L 277.894531 257.171875 L 347.210938 187.699219 L 277.894531 118.226562 Z M 285.074219 111.027344 " fill-opacity="1" fill-rule="nonzero"/></g><g clip-path="url(#a82e82360e)"><path fill="#e8e8e8" d="M -13.144531 189.765625 L 56.171875 259.242188 L 48.992188 266.4375 L -27.476562 189.765625 L 49.023438 113.09375 L 56.203125 120.292969 Z M 149.441406 55.574219 L 158.996094 57.984375 L 101.605469 323.925781 L 92.050781 321.515625 Z M 202.023438 113.09375 L 278.523438 189.765625 L 202.023438 266.4375 L 194.839844 259.242188 L 264.160156 189.765625 L 194.839844 120.292969 Z M 202.023438 113.09375 " fill-opacity="1" fill-rule="nonzero"/></g><g fill="#e8e8e8" fill-opacity="1"><g transform="translate(161.803718, 230.672637)"><g><path d="M 24.640625 -81.953125 L 24.640625 0 L 5.953125 0 L 5.953125 -81.953125 Z M 24.640625 -81.953125 "/></g></g></g><g fill="#e8e8e8" fill-opacity="1"><g transform="translate(187.426915, 230.672637)"><g><path d="M 73.703125 0 L 69.828125 -48.578125 L 69.328125 -48.578125 L 52.546875 -0.5 L 41.421875 -0.5 L 24.640625 -48.578125 L 24.140625 -48.578125 L 20.265625 0 L 1.59375 0 L 8.9375 -81.953125 L 28.8125 -81.953125 L 46.984375 -34.671875 L 65.15625 -81.953125 L 85.03125 -81.953125 L 92.375 0 Z M 73.703125 0 "/></g></g></g></svg>